# xmcd CD database file
#
# Track frame offsets:
#	150
#	22430
#	42980
#	63391
#	82754
#	103002
#	125705
#	145410
#	160411
#	173724
#	188721
#	204768
#	234463
#
# Disc length: 3303 seconds
#
# Revision: 0
# Processed by: cddbd v1.5PL3 Copyright (c) Steve Scherf et al.
# Submitted via: CDex 1.51
#
DISCID=b20ce50d
DTITLE=Sonntagsfahrer - V1
DYEAR=2003
DGENRE=Jazz
TTITLE0=dreams
TTITLE1=tourismo
TTITLE2=capri
TTITLE3=drivin' by
TTITLE4=rausch
TTITLE5=dns
TTITLE6=ganz einfach
TTITLE7=Q's SF
TTITLE8=sunday morning
TTITLE9=ain't no sunshine
TTITLE10=der weg ist das ziel
TTITLE11=zandvoort
TTITLE12=schweben
EXTD=YEAR: 2003
EXTT0=
EXTT1=
EXTT2=
EXTT3=
EXTT4=
EXTT5=
EXTT6=
EXTT7=
EXTT8=
EXTT9=
EXTT10=
EXTT11=
EXTT12=
PLAYORDER=
